# xmcd
#
# Track frame offsets:
#	150
#	13687
#	27462
#	40852
#	51230
#	61890
#	74270
#	86150
#	96665
#	108472
#	122250
#	136945
#	155440
#	167557
#	180870
#	192402
#	207960
#	221380
#	232172
#	243265
#	258192
#	272925
#	286802
#	299415
#	311542
#
# Disc length: 4295 seconds
#
# Revision: 1
# Processed by: cddbd v1.5.2PL0 Copyright (c) Steve Scherf et al.
# Submitted via: audiograbber 1.83.01
#
DISCID=6d10c519
DTITLE=Various Artist - Jump 'n' Shout: New Orleans Blues and Rhythm
DYEAR=1900
DGENRE=Blues
TTITLE0=Dave Bartholomew - Country Boy
TTITLE1=Dave Bartholomew - Girt Town Blues
TTITLE2=Dave Bartholomew - Mister Fool
TTITLE3=Erline Harris and The Johnson Brothers' Combo - Never Missed My Baby
TTITLE4=Erline Harris and The Johnson Brothers' Combo - Jum And Shout
TTITLE5=The Johnson Brothers' Combo - Mellow Woman Blues
TTITLE6=Larry Darnell - Why Did You Say Goodbye
TTITLE7=Larry Darnell - Pack Your Rags And Go
TTITLE8=Larry Darnell - Do You Love Me
TTITLE9=Annie Laurie - Now That You're Gone
TTITLE10=Joseph 'Google Eyes' August - Just To Be Home With You
TTITLE11=Joseph 'Google Eyes' August - I Cried
TTITLE12=Chubby Newsome - Hard Lovin' Mama
TTITLE13=Chubby Newsome - Find A Job
TTITLE14=Chubby Newsome - Please Thorw This Poor Dong A Bone
TTITLE15=Ernie K-Doe (Ernest Kador) - Talking To The Blues
TTITLE16=Ernie K-Doe (Ernest Kador) - Too Drunk To Drink
TTITLE17=Chubby Newsome - Where's The Money Honey
TTITLE18=Chubby Newsome - Little Fat Woman With The Coconut Head
TTITLE19=Sammy Cotton and Paul Gayten - You've Been Mistreating Me
TTITLE20=Ernie K-Doe (Ernest Kador) - Process Blues
TTITLE21=Ernie K-Doe (Ernest Kador) - Get Out Of Here Woman
TTITLE22=James 'Blazer Boy' Locks - Blazer Boy Blues
TTITLE23=James 'Blazer Boy' Locks - New Orleans Women Blues
TTITLE24=Erline Harris and The Johnson Brothers' Combo - Jump And Shout (Alternat
TTITLE24=e Mix)
EXTD=
EXTT0=
EXTT1=
EXTT2=
EXTT3=
EXTT4=
EXTT5=
EXTT6=
EXTT7=
EXTT8=
EXTT9=
EXTT10=
EXTT11=
EXTT12=
EXTT13=
EXTT14=
EXTT15=
EXTT16=
EXTT17=
EXTT18=
EXTT19=
EXTT20=
EXTT21=
EXTT22=
EXTT23=
EXTT24=
PLAYORDER=
